:FULLY-SPECIFIED
:FORCE-ALL-JOINTS-BE-3DOF
:DEGREES
114
root 9.24624 16.1048 -21.3208 5.09461 2.97562 4.69068
lfemur 9.65393 1.46814 -27.5675
ltibia 6.67271 0 0
lfoot -15.42 2.24728 0
ltoes -5.06837 0 0
rfemur -37.8719 8.81028 8.14194
rtibia 34.6758 0 0
rfoot -22.4777 -13.0688 0
rtoes -18.9804 0 0
lowerback -7.56863 -3.1513 -5.82781
upperback -1.2584 -3.77746 2.21473
thorax 3.48094 -1.96831 5.14168
lowerneck -20.2244 -5.03418 -12.8805
upperneck 20.8508 -5.84047 11.2956
head 10.792 -2.3883 5.36617
lclavicle -4.04087e-14 -1.36531e-14 0
lhumerus -28.7844 -22.981 94.192
lradius 37.3439 0 0
lwrist 8.50092 0 0
lhand -10.8501 -23.9949 0
lfingers 7.12502 0 0
lthumb 15.1649 5.42887 0
rclavicle -4.04087e-14 -1.36531e-14 0
rhumerus -46.2928 8.58853 -84.4048
rradius 35.2085 0 0
rwrist -19.0663 0 0
rhand -29.9568 -23.2597 0
rfingers 7.12502 0 0
rthumb -3.2757 -53.2139 0
115
root 9.24375 16.0958 -21.1918 5.12665 3.31228 4.76122
lfemur 10.4615 1.42858 -27.5756
ltibia 6.00544 0 0
lfoot -15.4201 2.02038 0
ltoes -5.20151 0 0
rfemur -38.3302 9.05754 7.81824
rtibia 33.8146 0 0
rfoot -22.652 -13.0841 0
rtoes -19.2424 0 0
lowerback -7.65058 -3.21389 -5.88969
upperback -1.25051 -3.8521 2.20346
thorax 3.54696 -2.00797 5.15404
lowerneck -20.1556 -5.06814 -12.9193
upperneck 20.8865 -5.88156 11.2746
head 10.7984 -2.41479 5.3594
lclavicle -4.10654e-14 -1.41961e-14 0
lhumerus -28.8484 -23.3025 94.4195
lradius 37.6815 0 0
lwrist 8.7126 0 0
lhand -10.8751 -24.0276 0
lfingers 7.12502 0 0
lthumb 15.1408 5.39807 0
rclavicle -4.10654e-14 -1.41961e-14 0
rhumerus -46.3715 8.4215 -84.2564
rradius 35.0533 0 0
rwrist -18.9804 0 0
rhand -29.9332 -23.2615 0
rfingers 7.12502 0 0
rthumb -3.25286 -53.2161 0
116
root 9.24125 16.0867 -21.0627 5.15869 3.64894 4.83177
lfemur 11.2691 1.38903 -27.5837
ltibia 5.33817 0 0
lfoot -15.4202 1.79349 0
ltoes -5.33465 0 0
rfemur -38.7886 9.3048 7.49454
rtibia 32.9534 0 0
rfoot -22.8263 -13.0994 0
rtoes -19.5043 0 0
lowerback -7.73253 -3.27648 -5.95157
upperback -1.24262 -3.92673 2.19219
thorax 3.61298 -2.04762 5.1664
lowerneck -20.0869 -5.1021 -12.9582
upperneck 20.9222 -5.92265 11.2536
head 10.8048 -2.44128 5.35262
lclavicle -4.17221e-14 -1.47391e-14 0
lhumerus -28.9123 -23.6241 94.6469
lradius 38.0191 0 0
lwrist 8.92428 0 0
lhand -10.9002 -24.0603 0
lfingers 7.12502 0 0
lthumb 15.1166 5.36727 0
rclavicle -4.17221e-14 -1.47391e-14 0
rhumerus -46.4502 8.25447 -84.108
rradius 34.8981 0 0
rwrist -18.8945 0 0
rhand -29.9095 -23.2634 0
rfingers 7.12502 0 0
rthumb -3.23002 -53.2183 0
117
root 9.23876 16.0777 -20.9337 5.19072 3.9856 4.90232
lfemur 12.0767 1.34947 -27.5918
ltibia 4.6709 0 0
lfoot -15.4204 1.56659 0
ltoes -5.46779 0 0
rfemur -39.2469 9.55206 7.17083
rtibia 32.0922 0 0
rfoot -23.0006 -13.1148 0
rtoes -19.7662 0 0
lowerback -7.81447 -3.33907 -6.01345
upperback -1.23473 -4.00136 2.18092
thorax 3.679 -2.08727 5.17876
lowerneck -20.0181 -5.13607 -12.9971
upperneck 20.9578 -5.96374 11.2326
head 10.8112 -2.46776 5.34585
lclavicle -4.23787e-14 -1.52822e-14 0
lhumerus -28.9763 -23.9456 94.8744
lradius 38.3567 0 0
lwrist 9.13595 0 0
lhand -10.9252 -24.0929 0
lfingers 7.12502 0 0
lthumb 15.0925 5.33647 0
rclavicle -4.23787e-14 -1.52822e-14 0
rhumerus -46.5289 8.08743 -83.9596
rradius 34.7429 0 0
rwrist -18.8086 0 0
rhand -29.8859 -23.2652 0
rfingers 7.12502 0 0
rthumb -3.20718 -53.2205 0
118
root 9.23626 16.0687 -20.8046 5.22276 4.32226 4.97286
lfemur 12.8844 1.30992 -27.5999
ltibia 4.00362 0 0
lfoot -15.4205 1.3397 0
ltoes -5.60093 0 0
rfemur -39.7052 9.79933 6.84713
rtibia 31.231 0 0
rfoot -23.1749 -13.1301 0
rtoes -20.0281 0 0
lowerback -7.89642 -3.40166 -6.07533
upperback -1.22684 -4.076 2.16966
thorax 3.74502 -2.12693 5.19112
lowerneck -19.9494 -5.17003 -13.0359
upperneck 20.9935 -6.00484 11.2116
head 10.8176 -2.49425 5.33907
lclavicle -4.30354e-14 -1.58252e-14 0
lhumerus -29.0402 -24.2671 95.1019
lradius 38.6943 0 0
lwrist 9.34763 0 0
lhand -10.9503 -24.1256 0
lfingers 7.12502 0 0
lthumb 15.0684 5.30567 0
rclavicle -4.30354e-14 -1.58252e-14 0
rhumerus -46.6076 7.9204 -83.8113
rradius 34.5877 0 0
rwrist -18.7227 0 0
rhand -29.8622 -23.267 0
rfingers 7.12502 0 0
rthumb -3.18434 -53.2228 0
119
root 9.23377 16.0596 -20.6756 5.2548 4.65892 5.04341
lfemur 13.692 1.27036 -27.6081
ltibia 3.33635 0 0
lfoot -15.4207 1.11281 0
ltoes -5.73407 0 0
rfemur -40.1635 10.0466 6.52343
rtibia 30.3698 0 0
rfoot -23.3492 -13.1455 0
rtoes -20.2901 0 0
lowerback -7.97837 -3.46425 -6.13721
upperback -1.21896 -4.15063 2.15839
thorax 3.81104 -2.16658 5.20348
lowerneck -19.8806 -5.20399 -13.0748
upperneck 21.0291 -6.04593 11.1907
head 10.824 -2.52073 5.3323
lclavicle -4.3692e-14 -1.63682e-14 0
lhumerus -29.1042 -24.5886 95.3293
lradius 39.0319 0 0
lwrist 9.55931 0 0
lhand -10.9753 -24.1582 0
lfingers 7.12502 0 0
lthumb 15.0443 5.27486 0
rclavicle -4.3692e-14 -1.63682e-14 0
rhumerus -46.6863 7.75336 -83.6629
rradius 34.4325 0 0
rwrist -18.6368 0 0
rhand -29.8386 -23.2689 0
rfingers 7.12502 0 0
rthumb -3.1615 -53.225 0
